<?xml version="1.0" encoding="utf-8"?>
<!-- Generator: Adobe Illustrator 24.0.1, SVG Export Plug-In . SVG Version: 6.00 Build 0)  -->
<svg version="1.1" id="圖層_1" xmlns="http://www.w3.org/2000/svg" xmlns:xlink="http://www.w3.org/1999/xlink" x="0px" y="0px"
	 viewBox="0 0 141.73 141.73" style="enable-background:new 0 0 141.73 141.73;" xml:space="preserve">
<style type="text/css">
	.st0{fill:#DCDDDD;}
	.st1{fill:#FFFFFF;}
	.st2{fill:#5A5B5B;}
</style>
<g>
	<polygon class="st0" points="68.89,35.08 4.56,16.7 76.44,1.84 137.02,14.76 123.39,18.82 76.44,8.78 35.32,17.74 85.09,30.31 	"/>
	<path class="st0" d="M-27.74,72.47"/>
	<path class="st0" d="M162.89,4.28"/>
	<polygon class="st0" points="141.3,103.78 75,141.73 75,42.11 141.3,19.01 	"/>
	<path class="st1" d="M85.09,59.75v50.95c0,0,43.94-18.01,48.58-42.76C136.64,52.07,135.68,43.86,85.09,59.75z"/>
	<polygon class="st2" points="63.66,82.03 29.65,70.06 29.65,40.82 63.66,51.17 	"/>
	<polygon class="st2" points="14.28,115.66 4.56,110.7 4.56,25.03 14.28,28.06 	"/>
	<polygon class="st2" points="63.66,125.54 29.65,111.27 29.65,82.03 63.66,93.95 	"/>
</g>
</svg>
